<?xml version="1.0" encoding="UTF-8"?>
<svg xmlns="http://www.w3.org/2000/svg" xmlns:xlink="http://www.w3.org/1999/xlink" width="80px" height="80px" viewBox="0 0 80 75" version="1.1">
<g id="surface1">
<path style=" stroke:none;fill-rule:evenodd;fill:rgb(9.019608%,26.666667%,38.823529%);fill-opacity:1;" d="M 66.582031 14.054688 C 60.777344 7.921875 49.425781 7.554688 43.234375 14.5625 L 39.921875 18.304688 L 36.386719 14.773438 C 29.226562 7.628906 18.464844 8.390625 14.09375 13.847656 L 13.976562 13.988281 C 8.445312 20.363281 8.613281 30.371094 15.144531 36.078125 L 15.28125 36.195312 L 40.25 61.605469 L 65.167969 36.25 L 65.246094 36.179688 C 71.503906 30.347656 71.925781 20.28125 66.582031 14.054688 Z M 39.539062 5.207031 C 49.851562 -2.78125 65.089844 -1.292969 73.511719 7.714844 L 73.570312 7.777344 L 73.628906 7.84375 C 82.304688 17.839844 81.648438 33.648438 71.738281 42.964844 L 40.25 75 L 8.816406 43.015625 C -1.835938 33.570312 -1.65625 17.746094 6.8125 7.914062 C 14.550781 -1.648438 29.242188 -2.046875 39.539062 5.207031 Z M 39.539062 5.207031 "/>
</g>
</svg>
